<svg xmlns="http://www.w3.org/2000/svg" width="28" height="20" viewBox="0 0 28 20">
    <g fill="none" fill-rule="evenodd" transform="translate(-1 -5)">
        <path d="M0 0h30v30H0z"/>
        <path fill="#FFF" fill-rule="nonzero" d="M18.5 20c-3.363 0-7.213 1.92-7.5 3h15c-.25-1.065-4.125-3-7.5-3z"/>
        <circle cx="18.5" cy="10.5" r="2.5" fill="#FFF" fill-rule="nonzero"/>
        <path fill="#45D88E" fill-rule="nonzero" d="M18.818 15c2.813 0 5.091-2.238 5.091-5 0-2.763-2.278-5-5.09-5-2.814 0-5.092 2.237-5.092 5 0 2.762 2.278 5 5.091 5zm0-7.5c1.4 0 2.546 1.125 2.546 2.5s-1.146 2.5-2.546 2.5-2.545-1.125-2.545-2.5 1.145-2.5 2.545-2.5zm0 10c-3.398 0-10.182 1.675-10.182 5V25H29v-2.5c0-3.325-6.784-5-10.182-5zm-7.636 5c.28-.9 4.213-2.5 7.636-2.5 3.437 0 7.382 1.613 7.637 2.5H11.182zm-3.818-3.75V15h3.818v-2.5H7.364V8.75H4.818v3.75H1V15h3.818v3.75h2.546z"/>
    </g>
</svg>
