<svg xmlns="http://www.w3.org/2000/svg" width="32" height="32" viewBox="0 0 32 32">
    <g fill="none" fill-rule="nonzero">
        <path fill="#54469D" d="M25.946 5.405v2.163c0 .605-.38 1.08-.865 1.08-.484 0-.865-.475-.865-1.08V5.405c0-.605.38-1.08.865-1.08s.865.475.865 1.08z"/>
        <path fill="#392E6E" d="M25.081 8.649V4.324c.969 0 1.73.476 1.73 1.081v2.163c0 .605-.761 1.08-1.73 1.08zM31.135 19.027c-.478 0-.865-.426-.865-.951v-5.708c0-.525-.387-.952-.865-.952h-1.73c-.477 0-.864-.425-.864-.951s.387-.951.865-.951h1.73c1.43 0 2.594 1.28 2.594 2.854v5.708c0 .525-.387.951-.865.951z"/>
        <path fill="#DEECF1" d="M27.676 7.784v.865l-2.595 1.73-2.595-1.73v-.865a2.59 2.59 0 0 1 2.595-2.595 2.59 2.59 0 0 1 2.595 2.595z"/>
        <path fill="#A8D3D8" d="M27.676 7.784v.865l-2.595 1.73v-5.19a2.59 2.59 0 0 1 2.595 2.595z"/>
        <path fill="#54469D" d="M25.946 28.757v2.162c0 .605-.38 1.081-.865 1.081-.484 0-.865-.476-.865-1.081v-2.162c0-.606.38-1.081.865-1.081s.865.475.865 1.08z"/>
        <path fill="#392E6E" d="M26.81 28.757v2.162c0 .605-.76 1.081-1.729 1.081v-4.324c.969 0 1.73.475 1.73 1.08z"/>
        <path fill="#DEECF1" d="M27.676 24.416c-.052 1.12-.331 2.612-1.846 5.391a.868.868 0 0 1-.749.463.868.868 0 0 1-.749-.463c-1.532-2.798-1.793-4.29-1.846-5.39l2.595-1.93 2.595 1.93z"/>
        <path fill="#A8D3D8" d="M25.081 22.486l2.595 1.93c-.052 1.12-.331 2.612-1.846 5.391a.868.868 0 0 1-.749.463v-7.784z"/>
        <path fill="#515F8A" d="M20.757 7.086v22.153c0 1.528-1.257 2.761-2.814 2.761H2.813C1.257 32 0 30.767 0 29.239V7.086c0-1.528 1.257-2.762 2.813-2.762h15.13c1.557 0 2.814 1.234 2.814 2.762z"/>
        <path fill="#392E6E" d="M20.757 7.086v22.153c0 1.528-1.257 2.761-2.814 2.761h-7.565V4.324h7.565c1.557 0 2.814 1.234 2.814 2.762z"/>
        <path fill="#DEECF1" d="M19.027 6.118v22.358c0 .52-.42.93-.954.93H2.683c-.534 0-.953-.41-.953-.93V6.118c0-.52.42-.929.954-.929h15.39c.533 0 .953.409.953.93z"/>
        <path fill="#C6E2E7" d="M18.162 6.118v22.358c0 .52-.377.93-.858.93h-6.926V5.188h6.926c.48 0 .858.409.858.93z"/>
        <g fill="#A8D3D8">
            <path d="M17.297 22.054c0 .533-.403.951-.918.951H5.242c-.514 0-.918-.418-.918-.95 0-.534.404-.952.918-.952H16.38c.515 0 .918.418.918.951zM17.297 25.86c0 .532-.403.95-.918.95H5.242c-.514 0-.918-.418-.918-.95 0-.533.404-.952.918-.952H16.38c.515 0 .918.419.918.951zM17.297 18.249c0 .533-.403.951-.918.951H5.242c-.514 0-.918-.418-.918-.951 0-.533.404-.952.918-.952H16.38c.515 0 .918.419.918.952z"/>
        </g>
        <path fill="#979FEF" d="M14.703 12.108c0 .485-.416.865-.945.865H6.134c-.53 0-.945-.38-.945-.865 0-.484.416-.865.945-.865h7.624c.529 0 .945.38.945.865z"/>
        <path fill="#7984EB" d="M13.838 12.973h-3.46v-1.73h3.46c.484 0 .865.38.865.865s-.38.865-.865.865z"/>
        <path fill="#8EBAC5" d="M17.297 25.081c0 .485-.43.865-.979.865h-5.94v-1.73h5.94c.549 0 .98.38.98.865zM17.297 21.622c0 .484-.43.864-.979.864h-5.94v-1.73h5.94c.549 0 .98.381.98.866zM16.318 19.027h-5.94v-1.73h5.94c.549 0 .98.38.98.865s-.431.865-.98.865z"/>
        <path fill="#979FEF" d="M14.703 2.566v1.768c0 .479-.425.855-.965.855H7.884c-.54 0-.965-.376-.965-.855V2.566c0-.48.424-.855.965-.855h1.03C8.913.77 9.781 0 10.842 0s1.93.77 1.93 1.71h.965c.54 0 .965.377.965.856z"/>
        <path fill="#7984EB" d="M13.622 5.19h-3.244V0c1.19 0 2.163.77 2.163 1.71h1.08c.606 0 1.082.377 1.082.856v1.768c0 .479-.476.855-1.081.855z"/>
        <path fill="#979FEF" d="M27.676 9.514V23.5c0 .238 0 .477-.018.716h-5.154c-.018-.22-.018-.44-.018-.661V9.514h5.19z"/>
        <path fill="#6B77E8" d="M27.676 9.514V23.5c0 .238 0 .477-.018.716h-2.577V9.514h2.595z"/>
    </g>
</svg>
