<svg xmlns="http://www.w3.org/2000/svg" width="30" height="30" viewBox="0 0 30 30">
    <g fill="none" fill-rule="evenodd">
        <path d="M0 0h30v30H0z"/>
        <path d="M6.25 23.75h17.5V6.25H6.25v17.5zm12.5-7.5h2.5v5h-2.5v-5zm-5-7.5h2.5v12.5h-2.5V8.75zm-5 3.75h2.5v8.75h-2.5V12.5z" opacity=".3"/>
        <path fill="#45D88E" d="M23.75 3.75H6.25a2.507 2.507 0 0 0-2.5 2.5v17.5c0 1.375 1.125 2.5 2.5 2.5h17.5c1.375 0 2.5-1.125 2.5-2.5V6.25c0-1.375-1.125-2.5-2.5-2.5zm0 20H6.25V6.25h17.5v17.5z"/>
        <path fill="#FFF" fill-rule="nonzero" d="M8.75 12.5h2.5v8.75h-2.5zM13.75 8.75h2.5v12.5h-2.5zM18.75 16.25h2.5v5h-2.5z"/>
    </g>
</svg>
