<svg xmlns="http://www.w3.org/2000/svg" width="200" height="191" viewBox="0 0 200 191">
    <defs>
        <linearGradient id="a" x1="49.999%" x2="49.999%" y1="100%" y2="0%">
            <stop offset="0%" stop-color="gray" stop-opacity=".25"/>
            <stop offset="54%" stop-color="gray" stop-opacity=".12"/>
            <stop offset="100%" stop-color="gray" stop-opacity=".1"/>
        </linearGradient>
        <linearGradient id="b" x1="50%" x2="50%" y1="100%" y2="0%">
            <stop offset="0%" stop-color="gray" stop-opacity=".25"/>
            <stop offset="54%" stop-color="gray" stop-opacity=".12"/>
            <stop offset="100%" stop-color="gray" stop-opacity=".1"/>
        </linearGradient>
        <linearGradient id="c" x1="60.761%" x2="39.299%" y1="98.88%" y2="1.029%">
            <stop offset="0%" stop-color="gray" stop-opacity=".25"/>
            <stop offset="54%" stop-color="gray" stop-opacity=".12"/>
            <stop offset="100%" stop-color="gray" stop-opacity=".1"/>
        </linearGradient>
        <linearGradient id="d" x1="50%" x2="50%" y1="99.914%" y2="-.086%">
            <stop offset="0%" stop-color="gray" stop-opacity=".25"/>
            <stop offset="54%" stop-color="gray" stop-opacity=".12"/>
            <stop offset="100%" stop-color="gray" stop-opacity=".1"/>
        </linearGradient>
    </defs>
    <g fill="none" fill-rule="nonzero">
        <path fill="#E0E0E0" d="M16.838 33.006L120.93 10.672l30.859 143.82-104.091 22.334z"/>
        <path fill="url(#a)" d="M13.882 9.291h102.862v142.122H13.882z" opacity=".5" transform="rotate(-12.11 137.969 -2.514)"/>
        <path fill="#FAFAFA" d="M20.618 35.809l98.013-21.03 29.157 135.889-98.013 21.03z"/>
        <path fill="url(#b)" d="M44.888 19.241h49.73v12.046h-49.73z" transform="rotate(-12.11 69.753 25.264)"/>
        <path fill="url(#c)" d="M66.02 7.87c-3.754.807-6.13 4.576-5.304 8.417.826 3.842 4.536 6.307 8.283 5.501 3.746-.806 6.129-4.575 5.303-8.417-.826-3.841-4.529-6.306-8.283-5.5zm2.355 10.987a4.107 4.107 0 1 1 3.06-4.872 4.058 4.058 0 0 1-3.06 4.872z"/>
        <path fill="#4A90E2" d="M44.582 23.976L92.18 13.763l2.416 11.258-47.599 10.213z"/>
        <path fill="#4A90E2" d="M66.02 7.87a6.804 6.804 0 1 0 2.855 13.306A6.804 6.804 0 0 0 66.02 7.87zm2.25 10.5a3.927 3.927 0 1 1-1.647-7.679 3.927 3.927 0 0 1 1.647 7.68z"/>
        <path fill="#E0E0E0" d="M62.823 28.48h106.46v147.094H62.823z"/>
        <path fill="url(#a)" d="M.068.029H102.93v142.122H.068z" opacity=".5" transform="translate(64.555 30.938)"/>
        <path fill="#FFF" d="M65.932 32.015h100.244v138.982H65.932z"/>
        <path fill="url(#b)" d="M91.32 25.988h49.73v12.046H91.32z"/>
        <path fill="url(#d)" d="M116.185 14.229c-3.84 0-6.952 3.186-6.952 7.118 0 3.932 3.113 7.118 6.952 7.118 3.84 0 6.953-3.186 6.953-7.118 0-3.932-3.114-7.118-6.953-7.118zm0 11.225a4.107 4.107 0 1 1 4.01-4.107 4.058 4.058 0 0 1-4.01 4.088v.02z"/>
        <path fill="#4A90E2" d="M91.844 25.471h48.682v11.515H91.844z"/>
        <path fill="#4A90E2" d="M116.185 14.229a6.804 6.804 0 1 0 0 13.608 6.804 6.804 0 0 0 0-13.608zm0 10.73a3.927 3.927 0 1 1 3.932-3.936 3.927 3.927 0 0 1-3.932 3.925v.012z"/>
        <g fill="#47E6B1" opacity=".5">
            <path d="M3.72 179.55h1v5.195h-1z"/>
            <path d="M6.777 181.69v1H1.581v-1z"/>
        </g>
        <g fill="#47E6B1" opacity=".5">
            <path d="M109.986 0h1v5.196h-1z"/>
            <path d="M113.042 2.139v1h-5.196v-1z"/>
        </g>
        <path fill="#4D8AF0" d="M187.84 188.2a1.123 1.123 0 0 1-.627-1.357.54.54 0 0 0 .025-.124.563.563 0 0 0-1.075-.263 1.123 1.123 0 0 1-1.357.626.54.54 0 0 0-.124-.025.563.563 0 0 0-.263 1.075c.523.227.792.81.626 1.356a.54.54 0 0 0-.024.125.563.563 0 0 0 1.074.263 1.123 1.123 0 0 1 1.357-.626.54.54 0 0 0 .124.024.563.563 0 0 0 .263-1.074z" opacity=".5"/>
        <path fill="#FDD835" d="M33.294 138.246a1.123 1.123 0 0 1-.627-1.357.54.54 0 0 0 .025-.124.563.563 0 0 0-1.074-.263 1.123 1.123 0 0 1-1.357.626.54.54 0 0 0-.125-.024.563.563 0 0 0-.263 1.074c.523.227.793.811.626 1.357a.54.54 0 0 0-.024.124.563.563 0 0 0 1.074.263 1.123 1.123 0 0 1 1.357-.626.54.54 0 0 0 .124.024.563.563 0 0 0 .264-1.074zM162.017 16.609a1.123 1.123 0 0 1-.626-1.357.54.54 0 0 0 .024-.124.563.563 0 0 0-1.074-.263 1.123 1.123 0 0 1-1.357.626.54.54 0 0 0-.124-.024.563.563 0 0 0-.263 1.074c.523.227.792.811.626 1.357a.54.54 0 0 0-.024.124.563.563 0 0 0 1.074.263 1.123 1.123 0 0 1 1.357-.626.54.54 0 0 0 .124.024.563.563 0 0 0 .263-1.074z" opacity=".5"/>
        <circle cx="197.963" cy="76.607" r="1.834" fill="#F55F44" opacity=".5"/>
        <circle cx="56.207" cy="181.888" r="1.834" fill="#F55F44" opacity=".5"/>
        <circle cx="179.125" cy="116.256" r="1.834" fill="#F55F44" opacity=".5"/>
        <circle cx="21.228" cy="23.471" r="1.834" fill="#4D8AF0" opacity=".5"/>
        <circle cx="1.834" cy="73.51" r="1.834" fill="#47E6B1" opacity=".5"/>
    </g>
</svg>
