<svg xmlns="http://www.w3.org/2000/svg" width="18" height="18" viewBox="0 0 18 18">
    <g fill="none" fill-rule="evenodd">
        <path d="M-3-3h24v24H-3z"/>
        <path fill="#ED5D5D" fill-rule="nonzero" d="M2 2v14h14V4.83L13.17 2H2zm7 13c-1.66 0-3-1.34-3-3s1.34-3 3-3 3 1.34 3 3-1.34 3-3 3zm3-8H3V3h9v4z" opacity=".3"/>
        <path fill="#ED5D5D" fill-rule="nonzero" d="M14 0H2a2 2 0 0 0-2 2v14a2 2 0 0 0 2 2h14c1.1 0 2-.9 2-2V4l-4-4zm2 16H2V2h11.17L16 4.83V16zM9 9c-1.66 0-3 1.34-3 3s1.34 3 3 3 3-1.34 3-3-1.34-3-3-3zM3 3h9v4H3V3z"/>
    </g>
</svg>
