<svg xmlns="http://www.w3.org/2000/svg" width="30" height="30" viewBox="0 0 30 30">
    <g fill="none" fill-rule="evenodd">
        <path d="M0 0h30v30H0z"/>
        <path fill-rule="nonzero" d="M24.1 10.75l-.875-1.513-1.588.638-1.325.537-1.137-.875c-.488-.375-1-.675-1.538-.887l-1.325-.538-.2-1.412-.237-1.7h-1.75l-.238 1.688-.2 1.412-1.324.55a7.32 7.32 0 0 0-1.563.913l-1.125.85-1.313-.525-1.587-.65L5.9 10.75l1.35 1.05 1.112.875-.174 1.413a9.56 9.56 0 0 0-.063.912c0 .25.025.538.063.913l.174 1.412-1.112.875-1.35 1.05.875 1.513 1.587-.638 1.326-.537 1.137.875c.488.375 1 .675 1.538.887l1.325.538.2 1.412.237 1.7h1.738l.237-1.687.2-1.413 1.325-.537a7.32 7.32 0 0 0 1.563-.913l1.125-.85 1.3.525 1.587.638.875-1.513-1.35-1.05-1.112-.875.175-1.412c.05-.388.062-.65.062-.913 0-.262-.025-.537-.062-.912l-.175-1.413 1.112-.875 1.375-1.05zM15 20c-2.762 0-5-2.238-5-5s2.238-5 5-5 5 2.238 5 5-2.238 5-5 5z" opacity=".3"/>
        <path fill="#45D88E" d="M24.288 16.225c.05-.4.087-.8.087-1.225 0-.425-.038-.825-.087-1.225l2.637-2.062a.63.63 0 0 0 .15-.8l-2.5-4.325a.624.624 0 0 0-.55-.313.584.584 0 0 0-.212.038L20.7 7.563c-.65-.5-1.35-.913-2.113-1.225l-.474-3.313A.61.61 0 0 0 17.5 2.5h-5a.61.61 0 0 0-.613.525l-.475 3.313A9.604 9.604 0 0 0 9.3 7.563l-3.112-1.25a.708.708 0 0 0-.225-.038.62.62 0 0 0-.538.313l-2.5 4.325a.616.616 0 0 0 .15.8l2.638 2.062c-.05.4-.088.813-.088 1.225 0 .413.038.825.088 1.225l-2.638 2.063a.63.63 0 0 0-.15.8l2.5 4.325c.113.2.325.312.55.312.075 0 .15-.013.213-.038l3.112-1.25c.65.5 1.35.913 2.112 1.226l.476 3.312c.037.3.3.525.612.525h5a.61.61 0 0 0 .613-.525l.474-3.313a9.604 9.604 0 0 0 2.113-1.224l3.113 1.25c.075.024.15.037.225.037a.62.62 0 0 0 .537-.313l2.5-4.325a.63.63 0 0 0-.15-.8l-2.637-2.062zm-2.476-2.137c.05.387.063.65.063.912 0 .263-.025.538-.063.913l-.175 1.412 1.113.875 1.35 1.05-.875 1.513-1.588-.638-1.3-.525-1.125.85c-.537.4-1.05.7-1.562.913l-1.325.537-.2 1.413-.25 1.687h-1.75l-.238-1.687-.2-1.413-1.325-.537a7.092 7.092 0 0 1-1.537-.888L9.687 19.6l-1.325.538-1.587.637-.875-1.512 1.35-1.05 1.112-.875-.175-1.413A10.055 10.055 0 0 1 8.125 15c0-.25.025-.537.062-.912l.175-1.413L7.25 11.8 5.9 10.75l.875-1.512 1.587.637 1.3.525 1.125-.85c.538-.4 1.05-.7 1.563-.912l1.325-.538.2-1.412.25-1.688h1.737l.238 1.688.2 1.412 1.325.538a7.092 7.092 0 0 1 1.537.887l1.138.875 1.325-.537 1.587-.638.875 1.513L22.75 11.8l-1.113.875.175 1.413z"/>
        <path fill="#FFF" fill-rule="nonzero" d="M15 10c-2.762 0-5 2.238-5 5s2.238 5 5 5 5-2.238 5-5-2.238-5-5-5zm0 7.5a2.507 2.507 0 0 1-2.5-2.5c0-1.375 1.125-2.5 2.5-2.5s2.5 1.125 2.5 2.5-1.125 2.5-2.5 2.5z"/>
    </g>
</svg>
