<svg xmlns="http://www.w3.org/2000/svg" width="250" height="169" viewBox="0 0 250 169">
    <defs>
        <linearGradient id="a" x1="50.019%" x2="50.019%" y1="100.004%" y2=".008%">
            <stop offset="0%" stop-color="gray" stop-opacity=".25"/>
            <stop offset="54%" stop-color="gray" stop-opacity=".12"/>
            <stop offset="100%" stop-color="gray" stop-opacity=".1"/>
        </linearGradient>
    </defs>
    <g fill="none" fill-rule="evenodd">
        <path fill="#6C63FF" fill-rule="nonzero" d="M245.025 51.567a60.698 60.698 0 0 0-9.906-15.752l-137.437-1.35 113.157-15.863a64.345 64.345 0 0 0-22.963-4.544c-22.229-17.734-53.491-18.79-76.87-2.597A64.172 64.172 0 0 0 81.59 4.389c-30.536 0-55.983 21.106-61.69 49.094l225.124-1.916zM250 75.137a59.713 59.713 0 0 0-4.287-22.276L7.268 77.948a60.047 60.047 0 0 0-5.583 14.144l73.837 11.033L0 111.176c2.27 31.86 29.524 57.013 62.803 57.013 16.757 0 31.98-6.378 43.26-16.773 11.317 10.588 26.687 17.116 43.622 17.116 25.127 0 46.816-14.342 56.915-35.077 20.26-6.446 36.002-22.631 41.388-42.868L154.61 76.05h95.381c.005-.307.009-.61.009-.914z" opacity=".1"/>
        <ellipse cx="135.261" cy="144.279" fill="#6C63FF" fill-rule="nonzero" opacity=".1" rx="7.152" ry="2.488"/>
        <ellipse cx="226.679" cy="144.279" fill="#6C63FF" fill-rule="nonzero" opacity=".1" rx="7.152" ry="2.488"/>
        <ellipse cx="127.177" cy="156.095" fill="#6C63FF" fill-rule="nonzero" opacity=".1" rx="7.152" ry="2.488"/>
        <ellipse cx="234.142" cy="156.716" fill="#6C63FF" fill-rule="nonzero" opacity=".1" rx="7.152" ry="2.488"/>
        <path fill="#B77B7F" fill-rule="nonzero" d="M231.965 153.99l1.866 3.348v-24.875h-1.866zM129.975 153.99l-1.866 3.348v-24.875h1.866z"/>
        <path fill="#000" fill-rule="nonzero" d="M231.965 153.99l1.866 3.348v-24.875h-1.866zM129.975 153.99l-1.866 3.348v-24.875h1.866z" opacity=".1"/>
        <path fill="#B77B7F" fill-rule="nonzero" d="M136.194 86.443h4.353v31.095h-4.353zM223.881 86.443h4.353v31.095h-4.353z"/>
        <path fill="#000" fill-rule="nonzero" d="M136.194 86.443h4.353v3.731h-4.353zM223.881 86.443h4.353v3.731h-4.353z" opacity=".1"/>
        <path fill="#DDA2A6" fill-rule="nonzero" d="M129.353 84.577h105.1v4.975h-105.1z"/>
        <path fill="#000" fill-rule="nonzero" d="M136.194 91.418h4.353v4.975h-4.353zM223.881 91.418h4.353v4.975h-4.353z" opacity=".1"/>
        <path fill="#DDA2A6" fill-rule="nonzero" d="M129.353 91.418h105.1v4.975h-105.1z"/>
        <path fill="#000" fill-rule="nonzero" d="M136.194 98.259h4.353v4.975h-4.353zM223.881 98.259h4.353v4.975h-4.353z" opacity=".1"/>
        <path fill="#DDA2A6" fill-rule="nonzero" d="M129.353 97.637h105.1v4.975h-105.1z"/>
        <path fill="#000" fill-rule="nonzero" d="M136.194 103.856h4.353v4.975h-4.353zM223.881 103.856h4.353v4.975h-4.353z" opacity=".1"/>
        <path fill="#DDA2A6" fill-rule="nonzero" d="M129.353 103.856h105.1v4.975h-105.1z"/>
        <path fill="#000" fill-rule="nonzero" d="M136.194 110.075h4.353v4.975h-4.353zM223.881 110.075h4.353v4.975h-4.353z" opacity=".1"/>
        <path fill="#DDA2A6" fill-rule="nonzero" d="M129.353 110.075h105.1v4.975h-105.1z"/>
        <g fill="#000" fill-rule="nonzero" opacity=".1" transform="translate(137.438 87.065)">
            <ellipse cx=".755" cy=".647" rx="1" ry="1"/>
            <ellipse cx=".755" cy="6.962" rx="1" ry="1"/>
            <ellipse cx=".755" cy="13.276" rx="1" ry="1"/>
            <ellipse cx=".755" cy="19.591" rx="1" ry="1"/>
            <ellipse cx=".755" cy="25.906" rx="1" ry="1"/>
            <ellipse cx="89.484" cy=".647" rx="1" ry="1"/>
            <ellipse cx="89.484" cy="6.962" rx="1" ry="1"/>
            <ellipse cx="89.484" cy="13.276" rx="1" ry="1"/>
            <ellipse cx="89.484" cy="19.591" rx="1" ry="1"/>
            <ellipse cx="89.484" cy="25.906" rx="1" ry="1"/>
        </g>
        <circle cx="138.371" cy="87.998" r="1" fill="#918C9E" fill-rule="nonzero"/>
        <circle cx="138.371" cy="94.216" r="1" fill="#918C9E" fill-rule="nonzero"/>
        <circle cx="138.371" cy="100.435" r="1" fill="#918C9E" fill-rule="nonzero"/>
        <circle cx="138.371" cy="106.654" r="1" fill="#918C9E" fill-rule="nonzero"/>
        <circle cx="138.371" cy="112.873" r="1" fill="#918C9E" fill-rule="nonzero"/>
        <circle cx="227.301" cy="87.998" r="1" fill="#918C9E" fill-rule="nonzero"/>
        <circle cx="227.301" cy="94.216" r="1" fill="#918C9E" fill-rule="nonzero"/>
        <circle cx="227.301" cy="100.435" r="1" fill="#918C9E" fill-rule="nonzero"/>
        <circle cx="227.301" cy="106.654" r="1" fill="#918C9E" fill-rule="nonzero"/>
        <circle cx="227.301" cy="112.873" r="1" fill="#918C9E" fill-rule="nonzero"/>
        <path fill="#DDA2A6" fill-rule="nonzero" d="M237.562 119.403H126.866l2.519-3.11h105.73z"/>
        <path fill="#000" fill-rule="nonzero" d="M237.562 119.403H126.866l2.519-3.11h105.73z" opacity=".1"/>
        <path fill="#DDA2A6" fill-rule="nonzero" d="M237.562 119.403H126.866l2.519-3.11h105.73zM241.294 125l-118.782-.315 4.033-4.66h111.294z"/>
        <path fill="#000" fill-rule="nonzero" d="M241.294 125l-118.782-.315 4.033-4.66h111.294z" opacity=".1"/>
        <path fill="#DDA2A6" fill-rule="nonzero" d="M241.294 124.378l-118.782-.315 4.033-4.66h111.294z"/>
        <path fill="#DDA2A6" fill-rule="nonzero" d="M245.025 128.11H118.159l3.892-4.354 119.517.142z"/>
        <path fill="#B77B7F" fill-rule="nonzero" d="M137.438 132.463v9.327l-1.362 3.11-.45-11.105-.054-1.332zM225.746 132.463l-.055 1.332-.448 11.105-1.362-3.11v-9.327z"/>
        <path fill="#000" fill-rule="nonzero" d="M137.438 132.463v9.327l-1.362 3.11-.45-11.105-.054-1.332zM225.746 132.463l-.055 1.332-.448 11.105-1.362-3.11v-9.327z" opacity=".1"/>
        <path fill="#B77B7F" fill-rule="nonzero" d="M131.841 131.841h3.731v12.438h-3.731zM226.368 131.841h3.731v12.438h-3.731z"/>
        <path fill="#000" fill-rule="nonzero" d="M135.878 132.507h1.56v1.2h-5.597v-1.866h4.037zM229.478 131.84v1.866h-5.597v-1.199h1.562v-.666z" opacity=".1"/>
        <path fill="#B77B7F" fill-rule="nonzero" d="M126.866 130.597h108.209v3.109H126.866z"/>
        <path fill="#B77B7F" fill-rule="nonzero" d="M123.134 129.975h4.975v27.985h-4.975zM238.806 157.96h-4.975v-27.985h4.975z"/>
        <path fill="#000" fill-rule="nonzero" d="M126.866 130.597h108.209v1H126.866z" opacity=".1"/>
        <path fill="#DDA2A6" fill-rule="nonzero" d="M118.159 128.109h126.866v1.866H118.159z"/>
        <path fill="#FFF" fill-rule="nonzero" d="M118.159 128.109h126.866v1.866H118.159z" opacity=".1"/>
        <circle cx="125.933" cy="132.152" r="1" fill="#000" fill-rule="nonzero" opacity=".1"/>
        <circle cx="125.933" cy="131.53" r="1" fill="#918C9E" fill-rule="nonzero"/>
        <circle cx="236.629" cy="132.152" r="1" fill="#000" fill-rule="nonzero" opacity=".1"/>
        <circle cx="236.629" cy="131.53" r="1" fill="#918C9E" fill-rule="nonzero"/>
        <ellipse cx="18.968" cy="140.547" fill="#6C63FF" fill-rule="nonzero" opacity=".1" rx="10.261" ry="1.244"/>
        <ellipse cx="57.525" cy="144.279" fill="#6C63FF" fill-rule="nonzero" opacity=".1" rx="10.261" ry="1.244"/>
        <ellipse cx="103.545" cy="139.303" fill="#6C63FF" fill-rule="nonzero" opacity=".1" rx="10.261" ry="1.244"/>
        <ellipse cx="41.356" cy="155.784" fill="#6C63FF" fill-rule="nonzero" opacity=".1" rx="7.152" ry="1"/>
        <ellipse cx="82.4" cy="154.54" fill="#6C63FF" fill-rule="nonzero" opacity=".1" rx="7.152" ry="1"/>
        <path fill="#6C63FF" fill-rule="nonzero" d="M57.28 143.657S43.172 96.97 59.491 78.26c12.21-13.989 26.068-12.316 32.276-10.585a11.499 11.499 0 0 1 7.403 6.21c2.168 4.724 1.777 12.391-13.54 21.342-25.648 14.984-27.235 35.541-27.235 35.541l-1.115 12.888z"/>
        <path stroke="#565987" d="M90.174 74.005S47.871 87.19 57.356 143.657M65.92 79.602s5.847 3.975 3.989 9.95M86.443 82.711s-3.646-3.037-8.085-1.36M69.652 100.62s-6.425-2.957-8.085.748M54.104 107.61s4.898-.367 4.976 1.843"/>
        <path fill="#6C63FF" fill-rule="nonzero" d="M57.214 144.9s16.9-34.32 21.543-33.57c2.205.357 3.22 2.522 3.679 4.698.57 2.813.25 5.733-.919 8.355-2.399 5.492-8.838 15.92-24.303 20.517z"/>
        <path stroke="#565987" d="M77.736 117.537s-17.2 25.617-20.522 26.742M80.224 121.89H75.87M75.249 130.597l-6.22.622M70.896 123.756l.621 3.11M64.677 133.706l.354 3.11"/>
        <path fill="#6C63FF" fill-rule="nonzero" d="M57.836 144.9s-16.9-34.32-21.541-33.57c-2.206.357-3.224 2.522-3.682 4.698a13.786 13.786 0 0 0 .921 8.355c2.397 5.492 8.839 15.92 24.302 20.517z"/>
        <path stroke="#565987" d="M36.07 117.537s17.2 25.617 20.522 26.742M34.826 121.89h4.353M39.801 130.597l6.219.622M43.532 123.756l-.622 3.11M50.734 133.706l-.36 3.11"/>
        <path fill="#6C63FF" fill-rule="nonzero" d="M86.107 152.194c.422-.363.807-.79.927-1.306.12-.517-.118-1.143-.648-1.332-.594-.211-1.23.173-1.71.562-.482.389-1.036.833-1.665.75.656-.56.95-1.402.773-2.216a.918.918 0 0 0-.211-.45c-.332-.33-.93-.188-1.324.071-1.267.827-1.607 2.421-1.616 3.858-.127-.517-.019-1.058-.023-1.589-.004-.53-.158-1.12-.634-1.405a2.032 2.032 0 0 0-.973-.215c-.566-.02-1.195.034-1.58.42-.48.48-.355 1.285.061 1.814.416.529 1.056.858 1.635 1.224.469.26.869.616 1.17 1.041.035.06.064.122.086.186h3.542a9.974 9.974 0 0 0 2.19-1.413zM22.05 138.97c.424-.401.809-.876.93-1.45.12-.573-.117-1.265-.65-1.477-.594-.235-1.23.192-1.713.624-.482.43-1.036.923-1.666.831.66-.62.958-1.553.785-2.458a1.08 1.08 0 0 0-.212-.499c-.332-.365-.93-.208-1.326.081-1.268.915-1.609 2.686-1.615 4.277-.127-.573-.021-1.173-.023-1.751-.003-.578-.161-1.243-.635-1.558a1.871 1.871 0 0 0-.975-.239c-.564-.02-1.194.037-1.581.466-.48.532-.355 1.425.061 2.012.417.586 1.057.952 1.639 1.357.468.29.868.684 1.17 1.156.034.065.063.134.086.205h3.546a9.942 9.942 0 0 0 2.18-1.578zM43.195 152.194c.423-.363.808-.79.928-1.306.121-.517-.116-1.143-.649-1.332-.594-.211-1.23.173-1.712.562-.483.389-1.037.833-1.667.75.66-.559.959-1.4.785-2.216a.917.917 0 0 0-.212-.45c-.332-.33-.93-.188-1.325.071-1.259.827-1.61 2.421-1.616 3.858-.127-.517-.021-1.058-.023-1.589-.002-.53-.16-1.12-.634-1.405a2.037 2.037 0 0 0-.975-.215c-.565-.02-1.195.034-1.582.42-.48.48-.355 1.285.061 1.814.417.529 1.058.858 1.64 1.224.468.26.868.616 1.168 1.041a.954.954 0 0 1 .087.186h3.533a9.988 9.988 0 0 0 2.193-1.413zM103.89 125s1.37 1.795-.631 4.505c-2.002 2.71-3.65 4.999-2.984 6.689 0 0 3.019-5.023 5.478-5.103 2.459-.081.842-3.064-1.863-6.091z"/>
        <path fill="#000" fill-rule="nonzero" d="M103.856 125c.121.173.217.363.284.564 2.423 2.824 3.716 5.46 1.385 5.528-2.172.06-4.775 3.912-5.4 4.884.021.074.046.148.074.218 0 0 3.053-5.024 5.54-5.104 2.487-.081.852-3.063-1.883-6.09z" opacity=".1"/>
        <path fill="#FFD037" fill-rule="nonzero" d="M106.965 127.354c0 .76-.137 1.377-.309 1.377-.171 0-.313-.617-.313-1.377s.176-.405.348-.405c.171 0 .274-.357.274.405z"/>
        <path fill="#FFD037" fill-rule="nonzero" d="M107.775 127.8c-.724.22-1.354.352-1.426.297-.07-.056.49-.279 1.215-.498.724-.218.439-.06.493 0 .054.06.442-.017-.282.202z"/>
        <path fill="#6C63FF" fill-rule="nonzero" d="M96.978 125s-1.368 1.795.634 4.505c2.001 2.71 3.65 4.999 2.984 6.689 0 0-3.021-5.023-5.479-5.103-2.457-.081-.843-3.064 1.86-6.091z"/>
        <path fill="#000" fill-rule="nonzero" d="M97.013 125a2.24 2.24 0 0 0-.282.564c-2.424 2.824-3.72 5.46-1.386 5.528 2.173.06 4.778 3.912 5.401 4.884-.02.074-.044.147-.072.218 0 0-3.057-5.024-5.543-5.104-2.485-.081-.852-3.063 1.882-6.09z" opacity=".1"/>
        <path fill="#FFD037" fill-rule="nonzero" d="M94.527 127.354c0 .76.138 1.377.31 1.377.17 0 .312-.617.312-1.377s-.176-.405-.347-.405c-.172 0-.275-.357-.275.405z"/>
        <path fill="#FFD037" fill-rule="nonzero" d="M93.727 127.8c.73.22 1.364.352 1.418.297.055-.056-.49-.279-1.22-.498-.729-.218-.442-.06-.496 0-.055.06-.43-.017.298.202z"/>
        <path fill="#A8A8A8" fill-rule="nonzero" d="M94.527 135.663s3.844-.111 5-.89c1.158-.778 5.904-1.703 6.202-.457.297 1.246 5.776 6.197 1.436 6.23-4.34.033-10.082-.636-11.238-1.301-1.157-.666-1.4-3.582-1.4-3.582z"/>
        <path fill="#000" fill-rule="nonzero" d="M107.244 140.677c-4.338.038-10.084-.73-11.24-1.49-.875-.577-1.232-2.657-1.348-3.615h-.129s.243 3.344 1.4 4.104c1.157.76 6.9 1.53 11.24 1.492 1.254 0 1.687-.493 1.663-1.206-.17.439-.647.708-1.586.715z" opacity=".2"/>
        <path fill="url(#a)" fill-rule="nonzero" d="M206.538 124.239l.127-.046s-.06-2.777-1.56-4.258c-1.501-1.481-.562-6.12-.562-6.12s.126-4.878-.563-6.05c-.688-1.173 0-5.558 0-5.558v-6.66s-.56-1.738-.686-6.483c-.126-4.745-.624-4.126-1.561-5.494-.485-.706-2.55-1.442-4.452-1.972a35.81 35.81 0 0 0-4.092-3.616 5.503 5.503 0 0 1 1.987-1.449c.674-.319 1.447-.651 1.722-1.333.12-.398.146-.82.073-1.23a7.373 7.373 0 0 0-.37-1.917 2.51 2.51 0 0 0-1.267-1.44c-.327-.143-.751-.243-.846-.584a.825.825 0 0 1 .017-.41c.147-.67.39-1.327.375-2.011-.016-.758-.347-1.475-.7-2.148-.89-1.7-2.022-3.377-3.718-4.305-2.128-1.164-4.763-.936-7.115-.35a9.327 9.327 0 0 1-1.949.363 8.437 8.437 0 0 0-1.195.029 2.258 2.258 0 0 0-.65.217c.044-.044.087-.091.135-.133a3.199 3.199 0 0 0-1.035.773 2.55 2.55 0 0 0-.65 1.147 1.57 1.57 0 0 0-.052.434c.033.414.183.809.433 1.138-.314.157-.62.33-.916.517-.149.081-.278.195-.378.333a.679.679 0 0 0-.072.162 1.729 1.729 0 0 0-.145.754c0 .033 0 .065-.015.096.026-.048.048-.096.07-.146-.248 1.52-2.118 2.474-2.645 3.855a2.044 2.044 0 0 0-.216.92c.024 1.113 1.005 1.938 1.537 2.915.89 1.635.492 3.622.24 5.462-.034.26-.062.53-.08.801-1.318.217-2.752.678-3.629 1.599-1.966 2.07-1.082.308-2.496 4.877l-1.405 4.56-.189 3.304s-1.083 1.086-.998 2.254c.084 1.169-.468 1.738-.468 1.738s-.125 2.438 0 3.025c.126.586-.937 1.172-.866 1.698.033.579.033 1.159 0 1.737 0 .094-.937.248-.842 1.327.056.637.076 1.277.06 1.916 0 0-1.559 1.635-1.247 2.53.312.895-.281 2.408-.281 2.408s-.345 1.976-1.187 2.502c-.686.434-1.228 2.04-1.405 2.626-.628.021-9.694.37-9.393 1.583.312 1.255 8.867 1.646 9.865 1.646a.879.879 0 0 0 .13-.013c-.234 1.52-.836 4.51-1.975 4.995-1.53.651-4.309 3.457-4.183 4.693.125 1.236-.5 8.706-.908 9.755-.084.217-.132.869-.13 1.764a189.275 189.275 0 0 0-3.817 6.964l-.1.193-.116.309c-.267-.185-2.202 2.287-2.202 2.287s-1.592 2.716-1.655 3.086c-.063.369-1.282.616-1.342.894-.06.278-1.499 2.07-1.499 2.07s-.812 2.098-2.25 2.654c-1.437.556-2.964 1.915-.998 3.46 1.967 1.543 5.9 2.406 5.9 2.406s2.5-2.563 2.998-3.766c.498-1.203 1.935-3.21 1.935-3.21s.867-1.737 1-2.389c.135-.651 3.017-5.019 3.017-5.019l-.312-.121c.12-.13.256-.274.407-.435.106-.11.217-.23.34-.35.334.822.736 1.38 1.22 1.49 2.31.526 3.964-2.284 5.027-2.562 1.063-.278 2.215-3.885 2.215-3.885s3.155-2.656 3.185-4.778c0-.467.018-.964.029-1.455a25.14 25.14 0 0 1 1.814-3.062c1.167-1.564 2.08-3.088 2.665-3.416.434-.24 3.123-2.923 4.548-4.363l.147-.15c.433.947.93 1.616 1.498 1.631.433.013.784-.619 1.061-1.52.028.058.058.116.091.176.782 1.413 2.22 2.606 2.22 2.606s3.997 5.618 3.652 6.515c-.344.897 2.904 4.66 4.764 5.772 1.498.89 5.413 5.353 6.91 7.089l.216.256c-.108.042-.22.07-.336.085-.52.02.73 1.398.73 1.398s.977 1.338.936 1.998c-.042.66 1.227 2.244 1.227 2.244s2.166 3.691 2.02 4.96c-.145 1.268-1.394 4.63 1.562 3.972 2.955-.658 6.119-.988 6.063-2.491-.057-1.503-1.332-4.126-1.332-4.126l-1.312-2.637s-1.31-1.707-1.895-2.88c-.585-1.172-2.393-4.94-2.393-4.94l-.65.276-.138-.296a337.501 337.501 0 0 1-4.261-9.455 37.316 37.316 0 0 0-2.598-5.06l2.598-.55c2.992 2.802 10.023 3.662 10.023 3.662s-.433-6.976.251-9.015c.355-1.056-.177-1.664-.807-2.172 2.814-.163 7.834-.617 8.072-1.572.238-.956-5.32-1.357-8.007-1.505zm-7.832-1.7c-.557-.04-.968-.044-.968-.044s.249-1.14.623-1.759c.375-.619-2.247-2.285-2.08-3.829.166-1.544-.854-4.754-.854-4.754s.124-3.333 0-4.877a4.729 4.729 0 0 1 .561-2.654s1.499 4.013.866 4.56c-.632.548 0 3.519 0 3.519s1.124 3.952 1.685 5.372c.331.821.216 2.741.167 4.468v-.002z"/>
        <path fill="#EFB7B9" fill-rule="nonzero" d="M161.279 120.025s-9.846.316-9.53 1.525c.315 1.209 8.962 1.584 9.971 1.584 1.009 0 2.46-1.741 2.46-1.741l-2.901-1.368z"/>
        <path fill="#67647E" fill-rule="nonzero" d="M167.289 115.05h5.597v4.975h-5.597z"/>
        <path fill="#000" fill-rule="nonzero" d="M167.289 115.05h5.597v4.975h-5.597z" opacity=".12"/>
        <path fill="#67647E" fill-rule="nonzero" d="M164.214 120.49l-5.01 10.224 6.352 2.082 5.127-4.446 2.423-4.745 4.906.404 5.238 2.634 4.233 2.613 2.561 4.84 3.671 2.098 7.872-1.698 1.15-5.41-6.424-4.348-2.328-3.562-9.437-1.388-2.732-4.116-9.442 2.302z"/>
        <path fill="#000" fill-rule="nonzero" d="M164.379 120.493l-5.175 11.137 6.532 1.168 5.188-4.446 2.452-4.745 4.965.402 5.3 2.636 4.282 2.61 2.592 4.844 3.715 2.095 7.966-1.698 1.162-5.41-6.499-4.346-2.356-3.564-9.55-1.386-2.764-4.118-9.554 2.302z" opacity=".12"/>
        <path fill="#E3787D" fill-rule="nonzero" d="M177.288 66.88c-.143.08-.266.192-.36.328-.1.235-.147.49-.14.747-.188 1.832-2.696 2.821-2.658 4.655.021 1.086.955 1.906 1.461 2.87.848 1.61.467 3.57.23 5.383-.18 1.374-.18 2.987.847 3.89.423.369.972.57 1.355.98.784.839.613 2.213 1.13 3.257a.945.945 0 0 0 .211.295c.09.072.192.126.301.158.998.337 2.138-.14 2.811-.966.674-.824.94-1.93.977-3.006.036-1.076-.134-2.142-.235-3.212-.193-2.058-.127-4.124-.29-6.19a5.095 5.095 0 0 0-.424-1.898c-.155-.308-.365-.586-.51-.898a4.87 4.87 0 0 1-.344-1.36l-.56-3.626c-.11-.725-.211-2.025-1.022-2.305-.812-.28-2.119.468-2.78.898z"/>
        <path fill="#E3787D" fill-rule="nonzero" d="M177.288 66.88c-.143.08-.266.192-.36.328-.1.235-.147.49-.14.747-.188 1.832-2.696 2.821-2.658 4.655.021 1.086.955 1.906 1.461 2.87.848 1.61.467 3.57.23 5.383-.18 1.374-.18 2.987.847 3.89.423.369.972.57 1.355.98.784.839.613 2.213 1.13 3.257a.945.945 0 0 0 .211.295c.09.072.192.126.301.158.998.337 2.138-.14 2.811-.966.674-.824.94-1.93.977-3.006.036-1.076-.134-2.142-.235-3.212-.193-2.058-.127-4.124-.29-6.19a5.095 5.095 0 0 0-.424-1.898c-.155-.308-.365-.586-.51-.898a4.87 4.87 0 0 1-.344-1.36l-.56-3.626c-.11-.725-.211-2.025-1.022-2.305-.812-.28-2.119.468-2.78.898z"/>
        <g fill="#000" fill-rule="nonzero" opacity=".1">
            <path d="M177.091 66.895c0-.05 0-.1.013-.151a.666.666 0 0 0-.11.136c-.102.235-.153.49-.149.747 0 .03 0 .061-.013.094.136-.256.224-.536.26-.826zM182.781 87.604c-.672.833-1.814 1.315-2.81.975a.756.756 0 0 1-.514-.458c-.52-1.043-.348-2.428-1.132-3.276-.384-.412-.935-.616-1.357-.99-1.028-.912-1.028-2.538-.848-3.927.238-1.83.62-3.81-.229-5.433-.507-.975-1.44-1.795-1.463-2.9a1.861 1.861 0 0 1 .02-.308c-.173.319-.261.68-.257 1.045.021 1.096.956 1.926 1.463 2.9.848 1.625.466 3.602.229 5.432-.18 1.39-.18 3.015.848 3.929.424.373.973.576 1.357.99.784.846.612 2.234 1.13 3.275a.963.963 0 0 0 .212.3c.09.072.193.126.303.158.996.34 2.139-.143 2.811-.976a4.265 4.265 0 0 0 .8-1.7c-.141.348-.33.673-.563.964z"/>
        </g>
        <path fill="#EFB7B9" fill-rule="nonzero" d="M204.395 125s9.843.318 9.528 1.524c-.315 1.206-8.96 1.585-9.971 1.585-1.012 0-2.46-1.742-2.46-1.742l2.903-1.367z"/>
        <path fill="#67647E" fill-rule="nonzero" d="M179.784 81.48s-4.705-.273-6.642 1.763c-1.936 2.036-1.078.303-2.46 4.8l-1.386 4.497-.185 3.252s-1.076 1.062-.983 2.218c.092 1.156-.464 1.702-.464 1.702s-.123 2.4 0 2.977-.922 1.153-.86 1.67c.031.566.031 1.134 0 1.701 0 .091-.923.243-.83 1.301.055.626.076 1.254.061 1.882 0 0-1.537 1.611-1.232 2.491.306.88-.276 2.37-.276 2.37s-.338 1.951-1.168 2.461c-.83.51-1.447 2.803-1.447 2.803s.768 1.976.768 2.067c0 .09-.553 5.164-2.06 5.802-1.505.637-4.245 3.406-4.127 4.614.119 1.207-.492 8.568-.891 9.6-.4 1.032.061 11.576 2.338 12.092s3.91-2.248 4.958-2.52c1.047-.27 2.182-3.828 2.182-3.828s3.11-2.613 3.14-4.707c.03-2.095.123-4.77.123-4.77s-3.632-6.071-4.37-6.533c-.737-.462-2.799-3.036-1.2-5.256 1.598-2.22 2.617-5.043 2.617-5.043l1.721-1.518 1.458-5.442 2.635-8.505 2.492-8.356 2.118-8.78 5.593-3.846s.994-2.504-1.623-2.96z"/>
        <path fill="#EFB7B9" fill-rule="nonzero" d="M177.86 129.471s-.35.363-.87.898c-1.398 1.428-4.032 4.092-4.447 4.328-.57.328-1.462 1.839-2.61 3.39-1.148 1.552-2.682 4.901-2.682 4.901s-3.82 5.39-6.053 5.963c-1.522.387-3.588 2.387-4.763 3.637-.563.595-.922 1.019-.922 1.019l-4.394-1.716.57-1.51.098-.195c.422-.826 2.16-4.21 4.452-8.18 2.643-4.57 6.667-8.778 6.667-8.778s3.493-3.226 3.614-4.697c.042-.816.03-1.634-.037-2.448-.065-1.058-.165-1.967-.165-1.967l5.322-3.47 4.065 1.706 2.156 7.119zM201.493 151.453l-4.42 2.154-.589-.69c-1.49-1.727-5.392-6.175-6.885-7.062-1.877-1.117-5.108-4.85-4.764-5.752.344-.902-3.64-6.492-3.64-6.492s-1.435-1.196-2.22-2.605c-.383-.688-.607-1.425-.432-2.1.527-2.063 2.27-6.585 2.27-6.585s.842-1.386.902-1.48c.06-.094 3.12-1.13 3.12-1.13l3.019-.308 3.797 3.199s-.14.761-.348 1.82c-.462 2.329-1.262 6.1-1.646 6.333-.558.338 2.587 2.854 2.587 2.854s2.084 1.757 4.664 7.721a329.542 329.542 0 0 0 4.247 9.425c.21.455.338.698.338.698z"/>
        <path fill="#000" fill-rule="nonzero" d="M175.657 122.287l2.204 6.826-.892.862c-.601-1.388-1.062-3.244-1.392-4.505-.584-2.233-6.578-1.646-7.618-1.646-.46 0-1.103.988-1.745 2.039-.067-1.016-.17-1.888-.17-1.888l5.453-3.328 4.16 1.64zM191.542 122.656s-.139.776-.346 1.853a8.002 8.002 0 0 0-1.92-2.71c-2.88-2.588-6.709-.375-6.709-.375-.394.148-.586.561-1.014 1.073a9.175 9.175 0 0 0-2.076 5.341 18.499 18.499 0 0 1-.507 3.38c-.379-.699-.601-1.45-.427-2.136.522-2.102 2.252-6.708 2.252-6.708s.836-1.41.895-1.507c.06-.096 3.09-1.151 3.09-1.151l2.996-.313 3.766 3.253z" opacity=".1"/>
        <path fill="#444053" fill-rule="nonzero" d="M195.273 125.24c-.04.988-3.758 2.54-3.758 2.54s0-4.153-2.798-6.606c-2.798-2.453-6.503-.364-6.503-.364-.383.14-.569.531-.984 1.016a8.565 8.565 0 0 0-2.015 5.054c-.128 2.104-.708 4.988-1.597 4.96-1.4-.037-2.353-4.188-2.918-6.442-.565-2.254-6.314-1.66-7.313-1.66-1 0-2.918 5.138-3.636 4.507-.72-.63.797-5.585.797-5.585l4.832-5.763 1.031-1.225 21.22 1.134s.528.806 1.045 1.604c.49.76.973 1.513.993 1.568.045.113 1.642 4.271 1.604 5.262z"/>
        <path fill="#000" fill-rule="nonzero" d="M174.13 118.542c.031.045 4.151 4.284 4.343 4.92.168.713.296 1.434.385 2.16 0 0 .093-1.5.228-1.923.134-.423-.479-1.406-.926-1.728-.446-.322-1.278-.923-1.39-1.18-.111-.257-.638-2.89-.638-2.89l-1.725-.364-.278 1.005zM181.592 118.781s-2.548 3.22-2.486 3.694c.06.474 2.486-3.694 2.486-3.694z" opacity=".1"/>
        <path fill="#EFB7B9" fill-rule="nonzero" d="M194.652 84.414l-2.944 4.115-8.084 1.645s-8.193-2.057-2.626-4.197a3.206 3.206 0 0 0 1.361-.923c.98-1.182.62-2.968-.197-4.707-1.283-2.742-3.68-5.373-3.68-5.373s11.512-5.122 10.203.22a5.417 5.417 0 0 0 .063 2.818c.688 2.423 2.859 4.33 4.367 5.41.492.362 1.005.693 1.537.992z"/>
        <path fill="#000" fill-rule="nonzero" d="M194.652 84.332l-2.936 4.174-8.06 1.668s-8.17-2.086-2.619-4.257a3.195 3.195 0 0 0 1.358-.935c1.31.594 2.68 1.065 3.372.853 0 0 4.535-1.36 7.353-2.502.49.365 1.002.698 1.532.999zM193.408 118.972a28.811 28.811 0 0 0-3.39-.904c-1.131-.217-2.22-.302-2.682.021-1.133.793-3.884 2.557-4.857 2.557-.556.016-1.068-.331-1.3-.882 0 0-2.996-.354-4.939 0-1.3.236-4.354-1.45-6.247-2.595l-.217-.132 1.044-1.365 21.49 1.264s.535.899 1.059 1.788l.039.248z" opacity=".1"/>
        <path fill="#A36468" fill-rule="nonzero" d="M193.076 113.002l.82 5.47a31.716 31.716 0 0 0-3.438-.84c-1.146-.2-2.25-.278-2.718.02-1.149.738-3.938 2.372-4.924 2.372a1.41 1.41 0 0 1-1.318-.816s-3.037-.328-5.007 0c-1.318.219-4.414-1.346-6.334-2.407-.96-.534-1.625-.941-1.625-.941l1.23-4.335 3.775-4.008.573-5.801.9-6.703 1.406-4.082 2.526-5.98.45-1.06a36.29 36.29 0 0 0 2.348 1.25c1.563.763 3.485 1.547 4.355 1.284 0 0 4.056-1.184 6.898-2.256 1.317-.499 2.363-.97 2.635-1.289a.286.286 0 0 0 .068-.133c0-.081.018-.02.035.16.176 1.805.786 15.62.786 15.62l-3.44 14.475z"/>
        <path fill="#000" fill-rule="nonzero" d="M195.896 98.231l-3.417 14.462.812 5.466a31.246 31.246 0 0 0-3.407-.84c-.194-2.24-.416-6.025.174-7.29.853-1.838 1.341-7.652 1.341-7.652l1.002-18.491.098-1.789c.072-.05 1.165.153 2.515.5l.102.027c.174 1.804.78 15.607.78 15.607zM202.736 126.008c-2.174.601-5.113 1.26-5.413.548-.222-.491-.198-1.594-.156-2.8 1.06.07 2.653.264 2.89.792.238.528 1.728.915 2.68 1.46z" opacity=".1"/>
        <path fill="#67647E" fill-rule="nonzero" d="M193.75 82.097c.184-.123 6.859 1.332 7.776 2.666.918 1.333 1.41.726 1.53 5.391.12 4.666.673 6.36.673 6.36v6.545s-.673 4.302 0 5.453c.673 1.15.55 5.936.55 5.936s-.917 4.54.55 6c1.47 1.459 1.53 4.179 1.53 4.179s-7.164 2.544-7.647 1.334c-.483-1.211.245-5.937-.306-7.331-.55-1.395-1.654-5.271-1.654-5.271s-.611-2.908 0-3.46c.612-.55-.856-4.483-.856-4.483a4.627 4.627 0 0 0-.55 2.605c.122 1.513 0 4.786 0 4.786s.998 3.15.836 4.666c-.162 1.515 2.403 3.15 2.04 3.755-.362.606-.613 1.73-.613 1.73s3.43.032 3.797.88c.367.847 3.184 1.26 3.428 2.447.245 1.187 2.817 1.552 2.144 3.552s-.245 8.845-.245 8.845-12.369-1.514-11.02-7.09c1.347-5.575 7.714-3.089 7.714-3.089s-5.073-2.966-8.023-2.603c-2.95.363-4.103-7.27-4.103-7.27s-.856-7.09 0-8.906c.857-1.816 1.346-7.566 1.346-7.566l1.103-20.061z"/>
        <path fill="#000" fill-rule="nonzero" d="M199.005 122.32s.297-.737 2.41-.277c2.114.46 3.187-.152 3.187-.152s-4.286 2.485-5.597.429zM198.725 94.527c-.033.09 1.74 2.418.401 4.299-1.338 1.881-2.44 4.9-2.675 5.462-.233.562-.555 1.433-.555 1.433" opacity=".1"/>
        <path fill="#000" fill-rule="nonzero" d="M193.369 79.602s5.803 4.278 5.772 6.279c0 0-.555.636-1.763.636-1.207 0-3.364-.576-3.61-1.911-.247-1.336-1.175 0-.648.699.526.7.833 1.06.833 1.06s5.492 1.488 6.543 2.185c1.05.698-.44 1.516-.44 1.516s-1.543 2.73-1.45 3.185c.092.455-3.799 6.4-3.799 6.4s-1.295 6.433-1.233 7.645c.061 1.212.154 3.789.154 3.789l-2.467 3.343s-.604-10.313-.203-11.707c.4-1.394 1.48-10.163 1.48-10.163s1.236-5.341.743-5.948c-.494-.606-.661-2.487-.661-2.487l.749-4.521z" opacity=".05"/>
        <path fill="#67647E" fill-rule="nonzero" d="M192.085 78.98s5.834 4.277 5.803 6.277c0 0-.56.637-1.771.637-1.211 0-3.381-.576-3.63-1.912-.247-1.335-1.18 0-.652.7.527.699.839 1.06.839 1.06s5.52 1.487 6.576 2.184c1.056.697-.443 1.515-.443 1.515s-1.55 2.732-1.459 3.187c.09.454-3.804 6.41-3.804 6.41s-1.304 6.43-1.24 7.642c.064 1.212.155 3.788.155 3.788l-1.993 3.338s-1.107-10.31-.7-11.706c.408-1.396 1.489-10.16 1.489-10.16s1.242-5.338.744-5.945c-.499-.606-.665-2.487-.665-2.487l.75-4.528z"/>
        <path fill="#000" fill-rule="nonzero" d="M192.085 78.98s5.834 4.277 5.803 6.277c0 0-.56.637-1.771.637-1.211 0-3.381-.576-3.63-1.912-.247-1.335-1.18 0-.652.7.527.699.839 1.06.839 1.06s5.52 1.487 6.576 2.184c1.056.697-.443 1.515-.443 1.515s-1.55 2.732-1.459 3.187c.09.454-3.804 6.41-3.804 6.41s-1.304 6.43-1.24 7.642c.064 1.212.155 3.788.155 3.788l-1.993 3.338s-1.107-10.31-.7-11.706c.408-1.396 1.489-10.16 1.489-10.16s1.242-5.338.744-5.945c-.499-.606-.665-2.487-.665-2.487l.75-4.528z" opacity=".12"/>
        <path fill="#000" fill-rule="nonzero" d="M181.592 84.101c-.038.292-.11.579-.214.854-.213.671-.563 1.583-.854 2.514-.427 1.44-1.73 4.038-2.512 6.498-.781 2.46-1.942 7.706-1.942 7.706s.239 4.826-1.345 6.041c-1.584 1.215-3.381 5.675-3.381 5.675s-.568 1.488-1.232 2.905c-.933-.529-1.58-.932-1.58-.932l1.196-4.29 3.669-3.966.57-5.747.875-6.634 1.366-4.04 2.455-5.919c.662-.05 1.101-.089 1.101-.089s.225-.136.52-.292c.548-.288 1.327-.63 1.308-.284z" opacity=".1"/>
        <path fill="#000" fill-rule="nonzero" d="M179.056 85.311s-5.819.479-7.119.334c-1.3-.145-.752 2.698-.752 2.698s-1.011 5.79-.788 6.405c.224.615 1.41 5.155.69 6.248-.72 1.092-2.948 6.762-2.948 6.762s-.72 2.517-1.343 5.033c-.622 2.517-2.099 7.336-2.477 7.762-.378.427-3.585 6.005-3.22 6.87.364.866 5.304-7.357 6.3-8.092.995-.736 2.846-5.337 2.846-5.337s1.88-4.457 3.543-5.67c1.663-1.21 1.412-6.034 1.412-6.034s1.222-5.246 2.037-7.702c.814-2.456 2.184-5.05 2.634-6.492.45-1.44 1.067-2.813 1.099-3.367.031-.554-1.914.582-1.914.582z" opacity=".05"/>
        <path fill="#67647E" fill-rule="nonzero" d="M179.674 84.68s-5.82.478-7.12.333c-1.3-.145-.752 2.698-.752 2.698s-1.002 5.79-.783 6.395c.22.606 1.41 5.154.69 6.246-.721 1.093-2.948 6.77-2.948 6.77s-.72 2.516-1.343 5.032c-.622 2.516-2.102 7.336-2.478 7.763-.376.426-3.58 6.01-3.22 6.884.36.874 5.304-7.371 6.3-8.098.996-.727 2.847-5.335 2.847-5.335s1.882-4.457 3.543-5.669c1.66-1.211 1.412-6.034 1.412-6.034s1.222-5.244 2.039-7.7c.817-2.455 2.182-5.05 2.634-6.49.452-1.441 1.065-2.813 1.097-3.366.031-.554-1.918.57-1.918.57z"/>
        <path fill="#000" fill-rule="nonzero" d="M179.674 84.68s-5.82.478-7.12.333c-1.3-.145-.752 2.698-.752 2.698s-1.002 5.79-.783 6.395c.22.606 1.41 5.154.69 6.246-.721 1.093-2.948 6.77-2.948 6.77s-.72 2.516-1.343 5.032c-.622 2.516-2.102 7.336-2.478 7.763-.376.426-3.58 6.01-3.22 6.884.36.874 5.304-7.371 6.3-8.098.996-.727 2.847-5.335 2.847-5.335s1.882-4.457 3.543-5.669c1.66-1.211 1.412-6.034 1.412-6.034s1.222-5.244 2.039-7.7c.817-2.455 2.182-5.05 2.634-6.49.452-1.441 1.065-2.813 1.097-3.366.031-.554-1.918.57-1.918.57z" opacity=".12"/>
        <path fill="#000" fill-rule="nonzero" d="M177.011 99.502s.76 3.601-.499 5.304c-1.26 1.703.133-4.536.5-5.304zM190.299 111.318s-3.623.531-4.818 2.098c-1.196 1.567 4.818-2.098 4.818-2.098zM189.578 115.05s-4.336 1.274-3.534 1.726c.803.453 2.752-.356 3.31-.212.557.144.224-1.514.224-1.514zM156.716 152.497c-.593.648-.97 1.11-.97 1.11l-4.627-1.87.6-1.646.103-.212a.046.046 0 0 1 .035 0c.272.195 2.322 1.567 2.322 1.567l2.537 1.05z" opacity=".1"/>
        <path fill="#444053" fill-rule="nonzero" d="M153.507 152.522s-1.967-1.216-2.231-1.393c-.264-.178-2.174 2.194-2.174 2.194s-1.57 2.606-1.632 2.96c-.061.352-1.264.591-1.319.857-.054.267-1.479 1.985-1.479 1.985s-.8 2.015-2.216 2.537c-1.416.522-2.928 1.837-.987 3.316 1.941 1.48 5.821 2.31 5.821 2.31s2.465-2.458 2.96-3.612c.494-1.154 1.907-3.08 1.907-3.08s.864-1.659.987-2.28c.123-.622 2.95-4.807 2.95-4.807l-2.587-.987z"/>
        <path fill="#000" fill-rule="nonzero" d="M200.87 150.483l-4.39 1.88-.584-.602a20.042 20.042 0 0 0 2.11-.939l2.538-.946c.2.394.327.607.327.607z" opacity=".1"/>
        <path fill="#444053" fill-rule="nonzero" d="M198.475 151.164s-1.945 1.131-2.455 1.15c-.51.02.716 1.371.716 1.371s.961 1.31.92 1.955c-.042.646 1.207 2.198 1.207 2.198s2.128 3.608 1.984 4.86c-.145 1.252-1.371 4.532 1.533 3.885 2.904-.648 6.014-.97 5.952-2.441-.06-1.472-1.314-4.032-1.314-4.032l-1.287-2.59s-1.29-1.672-1.862-2.823c-.572-1.15-2.35-4.821-2.35-4.821l-3.044 1.288z"/>
        <path fill="#E3787D" fill-rule="nonzero" d="M180.888 85.87c2.742-1.035 2.156-3.683.872-6.093a7.265 7.265 0 0 1-3.443-2.663c-.824.352-1.571 1.332-1.262 2.14.12.248.275.479.458.687 1.282 1.688 1.11 4.293-.384 5.8-.233.237-.514.49-.512.821 0 .41.436.677.82.814.504.18 1.033.285 1.57.31-.212-.564.213-1.184 1.88-1.815z"/>
        <path fill="#000" fill-rule="nonzero" d="M198.383 123.756s3.116.12 4.154.801c.63.42 1.13 1.004 1.443 1.687" opacity=".1"/>
        <g fill="#000" fill-rule="nonzero" opacity=".1">
            <path d="M177.685 80.355c.941 1.265 1.083 3.048.482 4.499.858-1.514.809-3.571-.242-4.986a2.931 2.931 0 0 1-.45-.69 1.217 1.217 0 0 1 0-.818 1.433 1.433 0 0 0-.24 1.298c.117.252.268.487.45.697zM179.15 87.625a5.19 5.19 0 0 1-1.287-.29c-.382-.14-.804-.409-.806-.82a.622.622 0 0 1 0-.062.851.851 0 0 0-.247.549c0 .41.429.68.806.818a5.23 5.23 0 0 0 1.544.311.722.722 0 0 1-.01-.506zM181.234 85.823c-1.287.5-1.825.993-1.887 1.456.276-.316.795-.65 1.647-.971.952-.366 1.5-.935 1.743-1.623a2.983 2.983 0 0 1-1.503 1.138z"/>
        </g>
        <path fill="#000" fill-rule="nonzero" d="M188.394 78.105c-.951 1.862-4.062 2.74-4.167 2.74a6.611 6.611 0 0 1-2.192-.365c-1.238-2.79-3.552-5.467-3.552-5.467s11.113-5.212 9.85.224a5.8 5.8 0 0 0 .061 2.868z" opacity=".1"/>
        <path fill="#EFB7B9" fill-rule="nonzero" d="M190.92 73.072a7.152 7.152 0 1 1-14.303-.001 7.152 7.152 0 0 1 14.303.001z"/>
        <path fill="#000" fill-rule="nonzero" d="M191.542 73.082c0 3.734-2.919 6.842-6.706 7.142-1.119-.894-1.939-2.133-2.594-3.408-.28-.554-.548-1.155-.476-1.771.062-.537.375-1.02.47-1.553.155-.862-.294-1.737-.757-2.5-.439-.704-.842-1.525-1.458-2.085-.325-.295-.625-.59-.917-.898 2.088-2.043 5.221-2.65 7.942-1.54 2.72 1.109 4.495 3.719 4.496 6.613z" opacity=".1"/>
        <path fill="#E3787D" fill-rule="nonzero" d="M178.64 67.077c-.377-.47-.761-.996-.779-1.598-.017-.56.288-1.08.658-1.496a2.78 2.78 0 0 1 1.535-.934c.39-.037.783-.047 1.175-.029a9.004 9.004 0 0 0 1.922-.352c2.322-.582 4.904-.81 7 .348 1.666.919 2.782 2.584 3.657 4.273.346.67.673 1.38.688 2.133.015.678-.22 1.334-.368 1.997a.854.854 0 0 0-.018.407c.094.337.51.438.833.58a2.485 2.485 0 0 1 1.247 1.429 7.29 7.29 0 0 1 .362 1.907 2.62 2.62 0 0 1-.07 1.219c-.27.685-1.03 1.006-1.695 1.324a5.39 5.39 0 0 0-1.957 1.441c-.504.643-.77 1.516-.53 2.297.248.687.76 1.246 1.422 1.556.657.302 1.35.518 2.06.645.312.047.61.158.878.326.627.458.607 1.47.127 2.079-.48.608-1.276.875-2.043.99a7.486 7.486 0 0 1-4.91-1.036c-.902-.547-1.73-1.35-1.928-2.383-.125-.64 0-1.334-.263-1.93-.349-.774-1.223-1.122-1.949-1.564-1.484-.905-2.506-2.406-3.288-3.955-.285-.562-.55-1.173-.478-1.798.061-.545.375-1.035.47-1.576.155-.89-.295-1.763-.757-2.54-.439-.715-.84-1.549-1.458-2.12a15.108 15.108 0 0 1-1.543-1.64z"/>
        <g fill="#000" fill-rule="nonzero" opacity=".1">
            <path d="M195.885 77.255a7.17 7.17 0 0 0-1.296.766c.181-.1.365-.192.552-.279a5.331 5.331 0 0 0 1.303-.751c-.187.101-.375.18-.559.264zM195.834 86.495a7.7 7.7 0 0 1-4.964-1.026c-.91-.542-1.748-1.336-1.947-2.359-.124-.634 0-1.32-.266-1.91-.35-.766-1.237-1.11-1.97-1.548-1.5-.896-2.533-2.382-3.324-3.915-.288-.557-.556-1.16-.483-1.78.062-.54.379-1.024.474-1.56.157-.88-.297-1.745-.765-2.513-.432-.709-.848-1.534-1.47-2.099a14.89 14.89 0 0 1-1.552-1.618c-.381-.465-.769-.985-.787-1.58-.017-.555.29-1.07.665-1.482.089-.097.184-.188.284-.275a3.192 3.192 0 0 0-1.028.76c-.38.412-.687.927-.665 1.482.02.595.407 1.115.789 1.58.473.578.992 1.119 1.55 1.618.623.565 1.042 1.39 1.472 2.099.468.768.924 1.632.767 2.514-.095.535-.412 1.02-.474 1.559-.073.62.195 1.223.483 1.78.79 1.533 1.823 3.019 3.324 3.915.73.433 1.617.784 1.967 1.549.273.589.142 1.275.266 1.91.2 1.022 1.04 1.816 1.948 2.358a7.703 7.703 0 0 0 4.964 1.026c.691-.097 1.4-.322 1.892-.795a4.434 4.434 0 0 1-1.15.31z"/>
        </g>
    </g>
</svg>
