<svg xmlns="http://www.w3.org/2000/svg" width="25" height="21" viewBox="0 0 25 21">
    <g fill="none" fill-rule="evenodd" transform="translate(-3 -5)">
        <path d="M0 0h30v30H0z"/>
        <circle cx="13.75" cy="10" r="2.5" fill="#FFF" fill-rule="nonzero"/>
        <path fill="#FFF" fill-rule="nonzero" d="M6.25 22.5h6.238l-1.238-1.25 1.162-1.175C9.438 20.413 6.5 21.712 6.25 22.5z"/>
        <path fill="#45D88E" fill-rule="nonzero" d="M13.75 15c2.762 0 5-2.238 5-5 0-2.763-2.238-5-5-5s-5 2.237-5 5c0 2.762 2.238 5 5 5zm0-7.5c1.375 0 2.5 1.125 2.5 2.5s-1.125 2.5-2.5 2.5a2.507 2.507 0 0 1-2.5-2.5c0-1.375 1.125-2.5 2.5-2.5zm-1.25 15H6.25c.25-.788 3.188-2.087 6.162-2.425h.038l.575-.563L15 17.575c-.488-.05-.85-.075-1.25-.075-3.338 0-10 1.675-10 5V25H15l-2.5-2.5zm13.25-6.875l-6.413 6.462-2.587-2.6L15 21.25l4.337 4.375 8.163-8.238-1.75-1.762z"/>
    </g>
</svg>
