<svg xmlns="http://www.w3.org/2000/svg" width="30" height="30" viewBox="0 0 30 30">
    <g fill="none" fill-rule="evenodd">
        <path d="M0 0h30v30H0z"/>
        <g transform="translate(2.5 6.25)">
            <circle cx="8.75" cy="4.375" r="1.875" fill-rule="nonzero" opacity=".3"/>
            <path fill-rule="nonzero" d="M2.925 15h11.65c-1.05-.725-3.587-1.563-5.825-1.563-2.237 0-4.775.838-5.825 1.563z" opacity=".3"/>
            <path fill="#45D88E" d="M8.75 8.75a4.38 4.38 0 0 0 4.375-4.375A4.38 4.38 0 0 0 8.75 0a4.38 4.38 0 0 0-4.375 4.375A4.38 4.38 0 0 0 8.75 8.75zm0-6.25c1.037 0 1.875.837 1.875 1.875A1.872 1.872 0 0 1 8.75 6.25a1.872 1.872 0 0 1-1.875-1.875c0-1.038.838-1.875 1.875-1.875zM8.75 10.938C5.825 10.938 0 12.4 0 15.311V17.5h17.5v-2.188c0-2.912-5.825-4.374-8.75-4.374zM2.925 15c1.05-.725 3.588-1.563 5.825-1.563 2.238 0 4.775.838 5.825 1.563H2.925z"/>
            <path fill="#FFF" fill-rule="nonzero" d="M17.55 11.012c1.45 1.05 2.45 2.45 2.45 4.3V17.5h5v-2.188c0-2.524-4.375-3.962-7.45-4.3zM16.25 8.75a4.38 4.38 0 0 0 4.375-4.375A4.38 4.38 0 0 0 16.25 0c-.675 0-1.3.163-1.875.438a6.8 6.8 0 0 1 1.25 3.937 6.8 6.8 0 0 1-1.25 3.938c.575.274 1.2.437 1.875.437z"/>
        </g>
    </g>
</svg>
